{
	"asset": {
		"generator": "Blocks",
		"version": "1.0.2",
		"copyright": "Unknown"
	},
	"buffers": {
		"model": {
			"byteLength": 12224,
			"type": "arraybuffer",
			"uri": "model.bin"
		}
	},
	"accessors": {
		"accessor_position_m0-PolyPaper19_-150460": {
			"bufferView": "vec3BufferView",
			"byteOffset": 0,
			"byteStride": 12,
			"componentType": 5126,
			"count": 284,
			"max": [ 0.1547306, 1.148529, -0.07773244 ],
			"min": [ -0.4811971, 1.054567, -0.5121651 ],
			"type": "VEC3"
		 },
		"accessor_normal_m0-PolyPaper19_-150460": {
			"bufferView": "vec3BufferView",
			"byteOffset": 3408,
			"byteStride": 12,
			"componentType": 5126,
			"count": 284,
			"max": [ 0.9642929, 0.9994168, 0.9980779 ],
			"min": [ -0.9642929, -0.9964544, -0.9935862 ],
			"type": "VEC3"
		 },
		"accessor_color_m0-PolyPaper19_-150460": {
			"bufferView": "vec4BufferView",
			"byteOffset": 0,
			"byteStride": 16,
			"componentType": 5126,
			"count": 284,
			"max": [ 0.8666667, 0.7647059, 0.2901961, 1 ],
			"min": [ 0.5450981, 0.6, 0.2666667, 1 ],
			"type": "VEC4"
		 },
		"accessor_indices_0_m0-PolyPaper19_-150460": {
			"bufferView": "ushortBufferView",
			"byteOffset": 0,
			"byteStride": 0,
			"componentType": 5123,
			"count": 432,
			"max": [ 283 ],
			"min": [ 0 ],
			"type": "SCALAR"
		 }
	},
	"bufferViews": {
		"ushortBufferView": {
			"buffer": "model",
			"byteLength": 864,
			"byteOffset": 0,
			"target": 34963
		},
		"vec3BufferView": {
			"buffer": "model",
			"byteLength": 6816,
			"byteOffset": 864,
			"target": 34962
		},
		"vec4BufferView": {
			"buffer": "model",
			"byteLength": 4544,
			"byteOffset": 7680,
			"target": 34962
		}
	},
	"meshes": {
		"mesh_m0-PolyPaper19_-150460": {
			"name": "mesh_m0-PolyPaper19_-150460",
			"primitives": [
				{
					"attributes": {
						"POSITION": "accessor_position_m0-PolyPaper19_-150460",
						"NORMAL": "accessor_normal_m0-PolyPaper19_-150460",
						"COLOR": "accessor_color_m0-PolyPaper19_-150460"
					},
					"indices": "accessor_indices_0_m0-PolyPaper19_-150460",
					"material": "material_mat19",
					"mode": 4
				}
			]
		}
	},
	"shaders": {
		"vertex_mat19": {
			"type": 35633,
			"uri": "https://vr.google.com/shaders/w/vs.glsl"
		},
		"fragment_mat19": {
			"type": 35632,
			"uri": "https://vr.google.com/shaders/w/fs.glsl"
		}
	},
	"programs": {
		"program_mat19": {
			"attributes": [
				"a_position",
				"a_normal",
				"a_color"				
			],
			"vertexShader": "vertex_mat19",
			"fragmentShader": "fragment_mat19"
		}
	},
	"techniques": {
		"technique_mat19": {
			"program": "program_mat19",
			"extras": {"gvrss" : "https://vr.google.com/shaders/w/gvrss/paper.json"},
			"parameters": {
				"position": {
					"type": 35665,
					"semantic": "POSITION"
				},
				"normal": {
					"type": 35665,
					"semantic": "NORMAL"
				},
				"color": {
					"type": 35666,
					"semantic": "COLOR"
				},
				"modelViewMatrix": {
					"type": 35676,
					"semantic": "MODELVIEW"
				},
				"projectionMatrix": {
					"type": 35676,
					"semantic": "PROJECTION"
				},
				"normalMatrix": {
					"type": 35675,
					"semantic": "MODELVIEWINVERSETRANSPOSE"
				},
				"color": {
					"type": 35666
				},
				"roughness": {
					"type": 5126
				},
				"metallic": {
					"type": 5126
				},
				"light0Pos": {
					"type": 35666
				},
				"light0Color": {
					"type": 35666
				},
				"light1Pos": {
					"type": 35666
				},
				"light1Color": {
					"type": 35666
				}				
			},
			"attributes": {
				"a_position": "position",
				"a_normal": "normal",
				"a_color": "color"				
			},
			"uniforms": {
				"u_modelViewMatrix": "modelViewMatrix",
				"u_projectionMatrix": "projectionMatrix",
				"u_normalMatrix": "normalMatrix",
				"u_color": "color",
				"u_roughness": "roughness",
				"u_metallic": "metallic",
				"u_light0Pos": "light0Pos",
				"u_light0Color": "light0Color",
				"u_light1Pos": "light1Pos",
				"u_light1Color": "light1Color"				
			},
			"states": {
				"enable": [
					2929,
					2884
				],
				"functions": {
					"cullFace": [1029]
				}
			}
		}
	},
	"materials": {
		"material_mat19": {
			"technique": "technique_mat19",
			"values": {
				"color": [0.8666667, 0.6, 0.2666667, 1],
				"roughness": 0.72,
				"metallic": 0,
				"light0Pos": [-0.02, 4.11, -0.54, 0],
				"light0Color": [0.8, 0.8, 0.8, 0],
				"light1Pos": [0.02, -4.11, 0.54, 0],
				"light1Color": [0.64, 0.5647059, 0.5647059, 0]				
			},
			"name": "material_mat19"
		}
	},
	"nodes": {
		"node_MeshObject1954212672-PolyPaper19": {
			"name": "node_MeshObject1954212672-PolyPaper19",
			"meshes": [
				"mesh_m0-PolyPaper19_-150460"
			],
			"matrix": [1, 0, 0, 0, 0, 1, 0, 0, 0, 0, 1, 0, 0, 0, 0, 1]
		}
	},
	"scene": "defaultScene",
	"scenes": {
		"defaultScene": {
			"nodes": [
				"node_MeshObject1954212672-PolyPaper19"
			],
			"extras": {

			}
		}
	}
}